<?xml version="1.0" encoding="UTF-8"?>
<!DOCTYPE svg PUBLIC "-//W3C//DTD SVG 1.1//EN" "http://www.w3.org/Graphics/SVG/1.1/DTD/svg11.dtd">
<svg xmlns="http://www.w3.org/2000/svg" version="1.1" width="128px" height="128px" style="shape-rendering:geometricPrecision; text-rendering:geometricPrecision; image-rendering:optimizeQuality; fill-rule:evenodd; clip-rule:evenodd" xmlns:xlink="http://www.w3.org/1999/xlink">
<g><path style="opacity:0.767" fill="#000000" d="M 53.5,12.5 C 60.4428,13.9324 67.4428,15.099 74.5,16C 75.4505,19.0567 75.7839,22.2234 75.5,25.5C 79.8165,25.8277 83.8165,27.161 87.5,29.5C 89.3159,28.1851 90.9825,26.6851 92.5,25C 93.5,24.3333 94.5,24.3333 95.5,25C 99.2156,28.3793 102.549,32.0459 105.5,36C 104.039,38.2983 102.372,40.4649 100.5,42.5C 102.839,46.1835 104.172,50.1835 104.5,54.5C 107.518,54.3354 110.518,54.502 113.5,55C 114.637,60.082 114.804,65.2487 114,70.5C 111.26,71.2822 108.426,71.7822 105.5,72C 104.124,76.0895 102.457,80.0895 100.5,84C 101.608,86.1124 103.108,87.9458 105,89.5C 105.667,90.5 105.667,91.5 105,92.5C 101.651,96.0158 98.1514,99.3492 94.5,102.5C 91.8536,101.014 89.3536,99.3476 87,97.5C 83.3942,99.535 79.5609,100.868 75.5,101.5C 75.7771,104.448 75.4438,107.281 74.5,110C 69.646,109.867 65.646,111.533 62.5,115C 59.1667,115.667 55.8333,115.667 52.5,115C 50.36,114.027 48.6933,112.527 47.5,110.5C 36.9118,110.247 30.5784,104.913 28.5,94.5C 23.0564,90.9856 21.0564,86.1523 22.5,80C 13.4597,75.7516 10.6264,68.9183 14,59.5C 15.5,56.6667 17.6667,54.5 20.5,53C 17.1471,47.6085 17.3137,42.1085 21,36.5C 23.651,33.924 26.8177,32.5907 30.5,32.5C 30.4765,27.3799 32.4765,23.2132 36.5,20C 43.0709,19.2758 48.7375,16.7758 53.5,12.5 Z M 55.5,16.5 C 59.4925,16.2447 62.3258,17.9114 64,21.5C 64.6667,50.1667 64.6667,78.8333 64,107.5C 60.9746,111.701 57.1413,112.535 52.5,110C 49.2348,106.63 48.5682,102.797 50.5,98.5C 46.6837,99.0897 45.0171,101.423 45.5,105.5C 39.4353,105.604 35.4353,102.771 33.5,97C 36.2321,96.587 38.8987,95.9203 41.5,95C 42.5171,93.9505 42.6838,92.7839 42,91.5C 37.9075,91.97 33.7408,91.47 29.5,90C 24.1667,85.3333 24.1667,80.6667 29.5,76C 31.6585,75.088 33.8252,74.2546 36,73.5C 36.7828,71.6815 36.2828,70.3482 34.5,69.5C 30.015,70.3252 26.1816,72.3252 23,75.5C 14.3686,69.2835 14.3686,62.9501 23,56.5C 26.1732,58.6129 29.6732,59.6129 33.5,59.5C 33.5,58.1667 33.5,56.8333 33.5,55.5C 24.4936,54.991 20.9936,50.3243 23,41.5C 27.9267,35.5928 33.5933,34.9262 40,39.5C 43.2039,37.6155 43.0372,35.7821 39.5,34C 37.9751,32.9914 36.3084,32.4914 34.5,32.5C 34.9769,25.6907 38.6436,22.3574 45.5,22.5C 44.7564,25.9496 46.0897,27.6162 49.5,27.5C 49.171,22.4866 51.171,18.82 55.5,16.5 Z M 67.5,20.5 C 68.209,19.596 69.209,19.2627 70.5,19.5C 70.3367,21.8568 70.5034,24.1902 71,26.5C 71.3879,27.428 72.0546,28.0946 73,28.5C 78.1545,29.8305 82.9879,31.8305 87.5,34.5C 90.0682,33.4411 92.2349,31.7744 94,29.5C 96.1667,31.6667 98.3333,33.8333 100.5,36C 98.2256,37.7651 96.5589,39.9318 95.5,42.5C 98.4815,47.442 100.482,52.7754 101.5,58.5C 104.5,58.5 107.5,58.5 110.5,58.5C 110.5,61.5 110.5,64.5 110.5,67.5C 107.552,67.2229 104.719,67.5562 102,68.5C 100.51,74.1424 98.3435,79.4758 95.5,84.5C 96.5589,87.0682 98.2256,89.2349 100.5,91C 98.5985,93.6131 96.2652,95.2797 93.5,96C 91.9571,94.1217 90.1238,92.6217 88,91.5C 83.2514,94.6967 78.0847,97.03 72.5,98.5C 71.081,100.958 70.081,103.625 69.5,106.5C 68.3364,100.528 68.1697,94.5276 69,88.5C 87.0673,84.0841 94.0673,72.7508 90,54.5C 85.8199,45.1594 78.6532,39.826 68.5,38.5C 68.8229,32.31 68.4896,26.31 67.5,20.5 Z M 68.5,42.5 C 83.2144,46.2593 89.0478,55.5926 86,70.5C 82.56,78.1128 76.7267,82.4461 68.5,83.5C 68.5,69.8333 68.5,56.1667 68.5,42.5 Z"/></g>
<g><path style="opacity:0.715" fill="#000000" d="M 51.5,36.5 C 52.8333,36.5 54.1667,36.5 55.5,36.5C 53.948,47.0577 47.948,51.391 37.5,49.5C 36.4173,48.635 36.2506,47.635 37,46.5C 40.5293,45.8693 44.0293,45.036 47.5,44C 49.8701,42.0589 51.2034,39.5589 51.5,36.5 Z"/></g>
<g><path style="opacity:0.736" fill="#000000" d="M 42.5,77.5 C 49.6164,77.2686 54.283,80.602 56.5,87.5C 55.6518,89.2828 54.3185,89.7828 52.5,89C 50.8752,83.5464 47.2085,81.0464 41.5,81.5C 41.4326,80.0413 41.7659,78.7079 42.5,77.5 Z"/></g>
</svg>
